<svg width="128" height="128" viewBox="0 0 128 128" fill="none" xmlns="http://www.w3.org/2000/svg">
<g clip-path="url(#clip0_7_9)">
<path d="M48 0C45.8783 0 43.8434 0.842855 42.3431 2.34315C40.8429 3.84344 40 5.87827 40 8V16C37.8783 16 35.8434 16.8429 34.3431 18.3431C32.8429 19.8434 32 21.8783 32 24V56H8C5.87827 56 3.84344 56.8429 2.34315 58.3431C0.842855 59.8434 0 61.8783 0 64L0 120C0 122.122 0.842855 124.157 2.34315 125.657C3.84344 127.157 5.87827 128 8 128H56V108C56 106.939 56.4214 105.922 57.1716 105.172C57.9217 104.421 58.9391 104 60 104H68C69.0609 104 70.0783 104.421 70.8284 105.172C71.5786 105.922 72 106.939 72 108V128H120C122.122 128 124.157 127.157 125.657 125.657C127.157 124.157 128 122.122 128 120V64C128 61.8783 127.157 59.8434 125.657 58.3431C124.157 56.8429 122.122 56 120 56H96V24C96 21.8783 95.1571 19.8434 93.6569 18.3431C92.1566 16.8429 90.1217 16 88 16V8C88 5.87827 87.1571 3.84344 85.6569 2.34315C84.1566 0.842855 82.1217 0 80 0L48 0ZM68 40.272V49.072L75.624 44.672L79.624 51.608L72 56L79.624 60.4L75.624 67.328L68 62.928V71.728H60V62.928L52.376 67.328L48.376 60.4L56 56L48.376 51.6L52.376 44.672L60 49.072V40.272H68V40.272ZM18 72H22C22.5304 72 23.0391 72.2107 23.4142 72.5858C23.7893 72.9609 24 73.4696 24 74V78C24 78.5304 23.7893 79.0391 23.4142 79.4142C23.0391 79.7893 22.5304 80 22 80H18C17.4696 80 16.9609 79.7893 16.5858 79.4142C16.2107 79.0391 16 78.5304 16 78V74C16 73.4696 16.2107 72.9609 16.5858 72.5858C16.9609 72.2107 17.4696 72 18 72V72ZM18 88H22C22.5304 88 23.0391 88.2107 23.4142 88.5858C23.7893 88.9609 24 89.4696 24 90V94C24 94.5304 23.7893 95.0391 23.4142 95.4142C23.0391 95.7893 22.5304 96 22 96H18C17.4696 96 16.9609 95.7893 16.5858 95.4142C16.2107 95.0391 16 94.5304 16 94V90C16 89.4696 16.2107 88.9609 16.5858 88.5858C16.9609 88.2107 17.4696 88 18 88V88ZM16 106C16 105.47 16.2107 104.961 16.5858 104.586C16.9609 104.211 17.4696 104 18 104H22C22.5304 104 23.0391 104.211 23.4142 104.586C23.7893 104.961 24 105.47 24 106V110C24 110.53 23.7893 111.039 23.4142 111.414C23.0391 111.789 22.5304 112 22 112H18C17.4696 112 16.9609 111.789 16.5858 111.414C16.2107 111.039 16 110.53 16 110V106ZM106 72H110C110.53 72 111.039 72.2107 111.414 72.5858C111.789 72.9609 112 73.4696 112 74V78C112 78.5304 111.789 79.0391 111.414 79.4142C111.039 79.7893 110.53 80 110 80H106C105.47 80 104.961 79.7893 104.586 79.4142C104.211 79.0391 104 78.5304 104 78V74C104 73.4696 104.211 72.9609 104.586 72.5858C104.961 72.2107 105.47 72 106 72ZM104 90C104 89.4696 104.211 88.9609 104.586 88.5858C104.961 88.2107 105.47 88 106 88H110C110.53 88 111.039 88.2107 111.414 88.5858C111.789 88.9609 112 89.4696 112 90V94C112 94.5304 111.789 95.0391 111.414 95.4142C111.039 95.7893 110.53 96 110 96H106C105.47 96 104.961 95.7893 104.586 95.4142C104.211 95.0391 104 94.5304 104 94V90ZM106 104H110C110.53 104 111.039 104.211 111.414 104.586C111.789 104.961 112 105.47 112 106V110C112 110.53 111.789 111.039 111.414 111.414C111.039 111.789 110.53 112 110 112H106C105.47 112 104.961 111.789 104.586 111.414C104.211 111.039 104 110.53 104 110V106C104 105.47 104.211 104.961 104.586 104.586C104.961 104.211 105.47 104 106 104Z" fill="black"/>
</g>
<defs>
<clipPath id="clip0_7_9">
<rect width="128" height="128" fill="white"/>
</clipPath>
</defs>
</svg>
