<svg width="128" height="128" viewBox="0 0 128 128" fill="none" xmlns="http://www.w3.org/2000/svg">
<g clip-path="url(#clip0_7_13)">
<path d="M101.144 120C111.832 120 120 110.76 120 100V40H8V100C8 110.76 16.168 120 26.856 120H101.144ZM44 56H84C85.0609 56 86.0783 56.4214 86.8284 57.1716C87.5786 57.9217 88 58.9391 88 60C88 61.0609 87.5786 62.0783 86.8284 62.8284C86.0783 63.5786 85.0609 64 84 64H44C42.9391 64 41.9217 63.5786 41.1716 62.8284C40.4214 62.0783 40 61.0609 40 60C40 58.9391 40.4214 57.9217 41.1716 57.1716C41.9217 56.4214 42.9391 56 44 56ZM6.4 8C4.70261 8 3.07475 8.67428 1.87452 9.87452C0.674284 11.0747 0 12.7026 0 14.4L0 24C0 25.6974 0.674284 27.3253 1.87452 28.5255C3.07475 29.7257 4.70261 30.4 6.4 30.4H121.6C123.297 30.4 124.925 29.7257 126.125 28.5255C127.326 27.3253 128 25.6974 128 24V14.4C128 12.7026 127.326 11.0747 126.125 9.87452C124.925 8.67428 123.297 8 121.6 8H6.4Z" fill="black"/>
</g>
<defs>
<clipPath id="clip0_7_13">
<rect width="128" height="128" fill="white"/>
</clipPath>
</defs>
</svg>
