<svg width="128" height="128" viewBox="0 0 128 128" fill="none" xmlns="http://www.w3.org/2000/svg">
<path d="M79.776 20.064C80.05 19.2814 80.074 18.4329 79.8447 17.6361C79.6154 16.8392 79.1441 16.1333 78.496 15.616L77.072 14.584C72.0739 11.2807 66.3987 9.14024 60.464 8.32C49.72 6.896 36.032 9.832 22.72 25.064H14.288C13.7618 25.0641 13.2408 25.168 12.7548 25.3698C12.2689 25.5716 11.8275 25.8673 11.456 26.24L1.16801 36.536C0.420566 37.2858 0.000854492 38.3013 0.000854492 39.36C0.000854492 40.4187 0.420566 41.4342 1.16801 42.184L21.736 62.816C22.1076 63.1885 22.549 63.4841 23.0349 63.6857C23.5209 63.8874 24.0419 63.9912 24.568 63.9912C25.0941 63.9912 25.6151 63.8874 26.1011 63.6857C26.587 63.4841 27.0284 63.1885 27.4 62.816L37.688 52.496C38.4358 51.7464 38.8558 50.7308 38.856 49.672V44.56L105.952 115.544C106.294 116.008 106.731 116.392 107.235 116.671C107.739 116.95 108.297 117.116 108.871 117.16C109.446 117.203 110.022 117.122 110.562 116.922C111.102 116.722 111.593 116.407 112 116L124 104C124.725 103.274 125.144 102.297 125.169 101.271C125.195 100.245 124.825 99.2488 124.136 98.488L51.104 29.448C57.08 25.8 65.28 22.736 76 22.736C76.8286 22.7366 77.637 22.4798 78.3134 22.0012C78.9898 21.5225 79.5009 20.8456 79.776 20.064Z" fill="black"/>
</svg>
