<svg width="128" height="128" viewBox="0 0 128 128" fill="none" xmlns="http://www.w3.org/2000/svg">
<g clip-path="url(#clip0_7_21)">
<path d="M65.688 16.3761C65.1593 16.13 64.5832 16.0024 64 16.0024C63.4169 16.0024 62.8407 16.13 62.312 16.3761L2.31203 44.3761C1.60548 44.7058 1.01073 45.2349 0.600914 45.8983C0.191096 46.5616 -0.015918 47.3302 0.0053314 48.1097C0.0265808 48.8891 0.275167 49.6453 0.720518 50.2853C1.16587 50.9254 1.78857 51.4213 2.51203 51.7121L62.512 75.7121C63.4671 76.0948 64.5329 76.0948 65.488 75.7121L112 57.1201V104C109.878 104 107.843 104.843 106.343 106.343C104.843 107.843 104 109.878 104 112V128H128V112C128 109.878 127.157 107.843 125.657 106.343C124.157 104.843 122.122 104 120 104V53.9121L125.488 51.7121C126.211 51.4213 126.834 50.9254 127.28 50.2853C127.725 49.6453 127.973 48.8891 127.995 48.1097C128.016 47.3302 127.809 46.5616 127.399 45.8983C126.989 45.2349 126.395 44.7058 125.688 44.3761L65.688 16.3761V16.3761Z" fill="black"/>
<path d="M33.408 72.2561C32.893 72.062 32.3434 71.9764 31.7937 72.0045C31.244 72.0326 30.706 72.1738 30.2134 72.4194C29.7208 72.6649 29.2842 73.0095 28.9309 73.4315C28.5776 73.8536 28.3151 74.344 28.16 74.8721L24.16 88.4721C23.8798 89.4268 23.9656 90.4517 24.4005 91.3467C24.8354 92.2416 25.5882 92.9424 26.512 93.3121L62.512 107.712C63.4671 108.095 64.5329 108.095 65.488 107.712L101.488 93.3121C102.412 92.9424 103.165 92.2416 103.6 91.3467C104.034 90.4517 104.12 89.4268 103.84 88.4721L99.84 74.8721C99.6849 74.344 99.4225 73.8536 99.0692 73.4315C98.7158 73.0095 98.2792 72.6649 97.7866 72.4194C97.294 72.1738 96.7561 72.0326 96.2064 72.0045C95.6567 71.9764 95.1071 72.062 94.592 72.2561L64 83.7281L33.408 72.2561Z" fill="black"/>
</g>
<defs>
<clipPath id="clip0_7_21">
<rect width="128" height="128" fill="white"/>
</clipPath>
</defs>
</svg>
