<svg width="128" height="128" viewBox="0 0 128 128" fill="none" xmlns="http://www.w3.org/2000/svg">
<path d="M48 104C48 112.84 39.04 120 28 120C16.96 120 8 112.84 8 104C8 95.168 16.96 88 28 88C39.04 88 48 95.168 48 104ZM120 88C120 96.84 111.04 104 100 104C88.96 104 80 96.84 80 88C80 79.16 88.96 72 100 72C111.04 72 120 79.16 120 88Z" fill="black"/>
<path fill-rule="evenodd" clip-rule="evenodd" d="M112 88V16H120V88H112ZM48 24V104H40V24H48Z" fill="black"/>
<path d="M40 23.2399C40 21.2567 40.7366 19.3441 42.067 17.8733C43.3974 16.4025 45.2267 15.4783 47.2 15.2799L111.2 8.87995C112.312 8.76814 113.436 8.89076 114.498 9.23988C115.56 9.58901 116.537 10.1569 117.367 10.9069C118.196 11.6569 118.859 12.5724 119.312 13.5943C119.766 14.6163 120 15.7219 120 16.8399V23.9999L40 31.9999V23.2399Z" fill="black"/>
</svg>
