<svg width="128" height="128" viewBox="0 0 128 128" fill="none" xmlns="http://www.w3.org/2000/svg">
<g clip-path="url(#clip0_7_37)">
<path fill-rule="evenodd" clip-rule="evenodd" d="M22.832 126.832C22.2726 127.393 21.5592 127.775 20.7823 127.93C20.0054 128.085 19.2001 128.006 18.4683 127.702C17.7365 127.399 17.1113 126.885 16.6718 126.226C16.2324 125.567 15.9986 124.792 16 124V112H3.99999C3.20782 112.001 2.43307 111.768 1.77396 111.328C1.11485 110.889 0.601053 110.263 0.297712 109.532C-0.00562784 108.8 -0.0848527 107.995 0.0700816 107.218C0.225016 106.441 0.607132 105.727 1.16799 105.168L13.168 93.168C13.5401 92.7968 13.9818 92.5026 14.4677 92.3021C14.9537 92.1017 15.4743 91.9991 16 92H30.344L55.168 67.168C55.9191 66.4169 56.9378 65.9949 58 65.9949C59.0622 65.9949 60.0809 66.4169 60.832 67.168C61.5831 67.9191 62.005 68.9378 62.005 70C62.005 71.0622 61.5831 72.0809 60.832 72.832L36 97.656V112C36.0009 112.526 35.8983 113.046 35.6978 113.532C35.4974 114.018 35.2032 114.46 34.832 114.832L22.832 126.832ZM128 28C128.001 28.7922 127.768 29.5669 127.328 30.226C126.889 30.8851 126.263 31.3989 125.532 31.7023C124.8 32.0056 123.995 32.0848 123.218 31.9299C122.441 31.775 121.727 31.3929 121.168 30.832L112 21.656L103.952 29.704C105.84 31.688 107.472 33.952 108.752 36.464C113.248 45.232 113.432 56.6 107.048 69.2C100.704 81.704 87.888 95.504 66.208 109.84L64 111.296L61.792 109.84C56.4767 106.347 51.3396 102.59 46.4 98.584L66.48 78.48C68.7311 76.2288 69.9958 73.1756 69.9958 69.992C69.9958 66.8084 68.7311 63.7552 66.48 61.504C64.2288 59.2528 61.1756 57.9882 57.992 57.9882C54.8084 57.9882 51.7551 59.2528 49.504 61.504L29.256 81.76C26.0455 77.8816 23.259 73.671 20.944 69.2C14.56 56.592 14.744 45.224 19.24 36.456C27.408 20.52 49.44 14.472 64 25.864C74 18.024 87.552 18.44 97.696 24.648L106.336 16L97.176 6.832C96.6156 6.27304 96.2337 5.56041 96.0785 4.78429C95.9233 4.00817 96.0018 3.20345 96.3042 2.47199C96.6065 1.74054 97.1191 1.11522 97.777 0.675178C98.4349 0.235141 99.2085 0.000168119 100 0L124 0C125.061 0 126.078 0.421427 126.828 1.17157C127.579 1.92172 128 2.93913 128 4V28Z" fill="black"/>
</g>
<defs>
<clipPath id="clip0_7_37">
<rect width="128" height="128" fill="white"/>
</clipPath>
</defs>
</svg>
