<svg width="128" height="128" viewBox="0 0 128 128" fill="none" xmlns="http://www.w3.org/2000/svg">
<path d="M56 112C56 112 48 112 48 104C48 96 56 72 88 72C120 72 128 96 128 104C128 112 120 112 120 112H56ZM88 64C94.3652 64 100.47 61.4714 104.971 56.9706C109.471 52.4697 112 46.3652 112 40C112 33.6348 109.471 27.5303 104.971 23.0294C100.47 18.5286 94.3652 16 88 16C81.6348 16 75.5303 18.5286 71.0294 23.0294C66.5286 27.5303 64 33.6348 64 40C64 46.3652 66.5286 52.4697 71.0294 56.9706C75.5303 61.4714 81.6348 64 88 64Z" fill="black"/>
<path fill-rule="evenodd" clip-rule="evenodd" d="M41.728 112C40.542 109.503 39.9506 106.764 40 104C40 93.16 45.44 82 55.488 74.24C50.4727 72.6947 45.2476 71.939 40 72C8 72 0 96 0 104C0 112 8 112 8 112H41.728Z" fill="black"/>
<path d="M36 64C41.3043 64 46.3914 61.8929 50.1421 58.1421C53.8929 54.3914 56 49.3043 56 44C56 38.6957 53.8929 33.6086 50.1421 29.8579C46.3914 26.1071 41.3043 24 36 24C30.6957 24 25.6086 26.1071 21.8579 29.8579C18.1071 33.6086 16 38.6957 16 44C16 49.3043 18.1071 54.3914 21.8579 58.1421C25.6086 61.8929 30.6957 64 36 64Z" fill="black"/>
</svg>
