<svg width="128" height="128" viewBox="0 0 128 128" fill="none" xmlns="http://www.w3.org/2000/svg">
<g clip-path="url(#clip0_7_4)">
<path d="M52 8C48.8174 8 45.7652 9.26428 43.5147 11.5147C41.2643 13.7652 40 16.8174 40 20V24H12C8.8174 24 5.76516 25.2643 3.51472 27.5147C1.26428 29.7652 0 32.8174 0 36L0 47.072L60.912 63.312C62.9354 63.8508 65.0646 63.8508 67.088 63.312L128 47.072V36C128 32.8174 126.736 29.7652 124.485 27.5147C122.235 25.2643 119.183 24 116 24H88V20C88 16.8174 86.7357 13.7652 84.4853 11.5147C82.2348 9.26428 79.1826 8 76 8H52ZM52 16H76C77.0609 16 78.0783 16.4214 78.8284 17.1716C79.5786 17.9217 80 18.9391 80 20V24H48V20C48 18.9391 48.4214 17.9217 49.1716 17.1716C49.9217 16.4214 50.9391 16 52 16V16Z" fill="black"/>
<path d="M0 100C0 103.183 1.26428 106.235 3.51472 108.485C5.76515 110.736 8.8174 112 12 112H116C119.183 112 122.235 110.736 124.485 108.485C126.736 106.235 128 103.183 128 100V54.8L65.032 71.576C64.3558 71.7566 63.6442 71.7566 62.968 71.576L0 54.8V100Z" fill="black"/>
</g>
<defs>
<clipPath id="clip0_7_4">
<rect width="128" height="128" fill="white"/>
</clipPath>
</defs>
</svg>
