<svg width="128" height="128" viewBox="0 0 128 128" fill="none" xmlns="http://www.w3.org/2000/svg">
<path d="M92 48.2159C92 49.2768 91.5786 50.2942 90.8284 51.0444C90.0783 51.7945 89.0609 52.2159 88 52.2159C86.9391 52.2159 85.9217 51.7945 85.1716 51.0444C84.4214 50.2942 84 49.2768 84 48.2159C84 47.1551 84.4214 46.1377 85.1716 45.3875C85.9217 44.6374 86.9391 44.2159 88 44.2159C89.0609 44.2159 90.0783 44.6374 90.8284 45.3875C91.5786 46.1377 92 47.1551 92 48.2159ZM80 60.2159C81.0609 60.2159 82.0783 59.7945 82.8284 59.0444C83.5786 58.2942 84 57.2768 84 56.2159C84 55.1551 83.5786 54.1377 82.8284 53.3875C82.0783 52.6374 81.0609 52.2159 80 52.2159C78.9391 52.2159 77.9217 52.6374 77.1716 53.3875C76.4214 54.1377 76 55.1551 76 56.2159C76 57.2768 76.4214 58.2942 77.1716 59.0444C77.9217 59.7945 78.9391 60.2159 80 60.2159ZM100 56.2159C100 57.2768 99.5786 58.2942 98.8284 59.0444C98.0783 59.7945 97.0609 60.2159 96 60.2159C94.9391 60.2159 93.9217 59.7945 93.1716 59.0444C92.4214 58.2942 92 57.2768 92 56.2159C92 55.1551 92.4214 54.1377 93.1716 53.3875C93.9217 52.6374 94.9391 52.2159 96 52.2159C97.0609 52.2159 98.0783 52.6374 98.8284 53.3875C99.5786 54.1377 100 55.1551 100 56.2159ZM88 68.2159C89.0609 68.2159 90.0783 67.7945 90.8284 67.0444C91.5786 66.2942 92 65.2768 92 64.2159C92 63.1551 91.5786 62.1377 90.8284 61.3875C90.0783 60.6374 89.0609 60.2159 88 60.2159C86.9391 60.2159 85.9217 60.6374 85.1716 61.3875C84.4214 62.1377 84 63.1551 84 64.2159C84 65.2768 84.4214 66.2942 85.1716 67.0444C85.9217 67.7945 86.9391 68.2159 88 68.2159ZM36 44.2159H44V52.2159H52V60.2159H44V68.2159H36V60.2159H28V52.2159H36V44.2159Z" fill="black"/>
<path d="M24.408 26.08C24.2714 25.5721 24.2362 25.0421 24.3047 24.5206C24.3731 23.999 24.5437 23.4961 24.8068 23.0406C25.0698 22.5851 25.4202 22.1859 25.8377 21.866C26.2552 21.546 26.7317 21.3116 27.24 21.176L42.696 17.032C43.2273 16.8904 43.7822 16.8599 44.3259 16.9424C44.8695 17.0248 45.3904 17.2185 45.8558 17.5113C46.3213 17.8041 46.7214 18.1897 47.0311 18.6441C47.3408 19.0984 47.5536 19.6118 47.656 20.152C52.896 19.52 58.456 19.216 64 19.216C69.76 19.216 75.544 19.544 80.96 20.224C81.0535 19.6756 81.2604 19.1527 81.5675 18.6887C81.8746 18.2247 82.2751 17.8299 82.7434 17.5295C83.2117 17.2291 83.7375 17.0297 84.2872 16.9441C84.8369 16.8584 85.3985 16.8884 85.936 17.032L101.392 21.176C101.982 21.3339 102.528 21.6247 102.988 22.0261C103.448 22.4275 103.81 22.9289 104.046 23.4918C104.282 24.0548 104.387 24.6643 104.351 25.2738C104.315 25.8833 104.14 26.4765 103.84 27.008C104.96 27.728 105.968 28.528 106.824 29.384C110.088 32.648 113.064 37.784 115.584 43.56C118.144 49.424 120.376 56.288 122.024 63.288C123.672 70.288 124.744 77.528 124.936 84.136C125.128 90.664 124.464 96.952 122.312 101.816C121.331 104 119.684 105.818 117.608 107.01C115.532 108.202 113.133 108.709 110.752 108.456C105.664 107.92 101.832 105.304 98.648 102.272C96.688 100.416 94.68 98.064 92.736 95.808C91.728 94.624 90.736 93.472 89.792 92.424C83.968 85.992 77.016 80.208 64 80.208C50.984 80.208 44.032 85.992 38.208 92.424C37.256 93.472 36.272 94.624 35.264 95.808C33.32 98.064 31.312 100.408 29.352 102.272C26.168 105.312 22.336 107.92 17.248 108.456C14.8673 108.709 12.4676 108.202 10.3916 107.01C8.31558 105.818 6.66938 104 5.688 101.816C3.528 96.952 2.872 90.656 3.056 84.136C3.248 77.528 4.336 70.296 5.976 63.288C7.624 56.288 9.86401 49.424 12.416 43.56C14.936 37.784 17.912 32.648 21.168 29.384C22.2138 28.3582 23.3765 27.4587 24.632 26.704C24.5399 26.4999 24.465 26.2885 24.408 26.072V26.08ZM40.696 29.376C33.68 30.856 28.944 32.92 26.832 35.04C24.624 37.248 22.136 41.304 19.752 46.76C17.2229 52.6927 15.2205 58.8364 13.768 65.12C12.2336 71.4313 11.3252 77.8785 11.056 84.368C10.88 90.408 11.552 95.312 13 98.576C13.2965 99.2118 13.7846 99.7387 14.3958 100.083C15.007 100.427 15.7106 100.572 16.408 100.496C19.024 100.224 21.288 98.904 23.84 96.48C25.536 94.864 27.04 93.096 28.76 91.088C29.824 89.84 30.968 88.504 32.28 87.056C38.888 79.752 47.824 72.216 64 72.216C80.176 72.216 89.112 79.752 95.72 87.056C97.032 88.504 98.176 89.84 99.24 91.088C100.952 93.096 102.464 94.864 104.16 96.48C106.704 98.904 108.968 100.224 111.592 100.504C112.29 100.579 112.995 100.434 113.606 100.088C114.217 99.7419 114.705 99.2132 115 98.576C116.44 95.312 117.12 90.416 116.944 84.368C116.675 77.8785 115.766 71.4313 114.232 65.12C112.779 58.8365 110.777 52.6928 108.248 46.76C105.864 41.304 103.368 37.24 101.168 35.04C99.056 32.92 94.32 30.856 87.304 29.376C80.504 27.944 72.288 27.216 64 27.216C55.712 27.216 47.496 27.944 40.696 29.376Z" fill="black"/>
</svg>
